<svg xmlns="http://www.w3.org/2000/svg" viewBox="0 0 1374.17 1080"><defs><style>.cls-1{fill:#a8d3d8;}.cls-2{fill:#f05d50;opacity:0.75;}</style></defs><g id="Layer_2" data-name="Layer 2"><path class="cls-1" d="M987.54,302.05c0,2.83,0,5.64-.12,8.45a283.77,283.77,0,0,1-70.88,179.72l-151,151L715,691.77l-62.86,62.86-.81-.81q-4.16,5.2-8.55,10.17l-25.7,25.7a283.7,283.7,0,0,1-179.73,70.88c-2.81.08-5.62.13-8.45.13a283.74,283.74,0,0,1-188.18-71L26.84,575.82,240.71,361.94q5-4.4,10.18-8.55l-.81-.81L514.49,88.17A283.62,283.62,0,0,1,684.75,17.72h35.83C869.57,27,987.54,150.73,987.54,302.05Z"/><path class="cls-2" d="M1335.17,650.23a286.59,286.59,0,0,1-75.36,194.2l-16.17,16.17L1136.5,966.81l-27.73,27.5c-50,43-115.62,68-186.76,68a284.34,284.34,0,0,1-191.47-73.75l-20.21-20.21-136.5-136.5L519.41,777.4,838.05,458.76l20.21-20.22a284.31,284.31,0,0,1,182.45-73.6c3-.1,6-.14,9-.14a284.38,284.38,0,0,1,191.47,73.74l20.21,20.22A284.34,284.34,0,0,1,1335.17,650.23Z"/></g></svg>