<svg id="Layer_1" data-name="Layer 1" xmlns="http://www.w3.org/2000/svg" viewBox="0 0 1557.5 1080"><defs><style>.cls-1{fill:#a8d3d8;}.cls-2{fill:#f05d50;opacity:0.75;}.cls-3{fill:none;}</style></defs><path class="cls-1" d="M80.49,17.36l61.36,173.25,61-173.25h64.64V256.23H218.14V190.94l4.92-112.72-64.48,178h-33.8L60.47,78.39l4.92,112.55v65.29H16.17V17.36Z"/><path class="cls-1" d="M512.57,207h-86.3l-16.41,49.21H357.53L446.45,17.36h45.61l89.41,238.87H529.14Zm-73-39.87h59.72l-30-89.42Z"/><path class="cls-1" d="M745.8,160.42,720.2,188v68.25H671V17.36H720.2V125.64l21.66-29.7,60.87-78.58h60.54L778.45,123.51l87.28,132.72H807.16Z"/><path class="cls-1" d="M1095.19,152.71h-94.5v64H1111.6v39.53H951.47V17.36h159.8V57.22H1000.69v56.94h94.5Z"/><path class="cls-2" d="M58.17,1062.64V823.77h83.68q43.47,0,66,16.65t22.48,48.81q0,17.55-9,30.92a52.08,52.08,0,0,1-25.1,19.61q18.38,4.59,29,18.54t10.58,34.12q0,34.46-22,52.18t-62.68,18Zm49.22-138.8h36.42q37.24-.65,37.25-29.69,0-16.24-9.44-23.38t-29.77-7.14H107.39Zm0,34.79v64.47h42.17q17.38,0,27.15-8.28t9.76-22.89q0-32.8-34-33.3Z"/><path class="cls-2" d="M465.57,975.2H426.36v87.44H377.14V823.77H465.9q42.33,0,65.3,18.86t23,53.32q0,24.45-10.59,40.77t-32.07,26l51.68,97.62v2.29H510.36Zm-39.21-39.87h39.7q18.54,0,28.71-9.43t10.18-26q0-16.89-9.6-26.58t-29.45-9.68H426.36Z"/><path class="cls-2" d="M839.82,959.12h-94.5v64H856.23v39.54H696.1V823.77H855.9v39.86H745.32v56.93h94.5Z"/><path class="cls-2" d="M1124.5,1013.42h-86.29l-16.41,49.22H969.46l88.93-238.87H1104l89.41,238.87h-52.34Zm-73-39.86h59.71l-30-89.42Z"/><path class="cls-2" d="M1409.07,966.83l-25.6,27.56v68.25h-49.21V823.77h49.21V932.05l21.66-29.7L1466,823.77h60.54l-84.82,106.14L1529,1062.64h-58.57Z"/><path class="cls-3" d="M134,458q-24.78,0-38.23,19.28Q83.6,494.7,82.35,526.9H185.67q-1.26-31.9-13.27-49.41Q158.95,458,134,458Z"/><path class="cls-3" d="M95.62,602.18q13.44,20.19,38.71,20.18,24.78,0,38.07-19.44c4.55-6.65,7.92-14.9,10.16-24.68H85.62A74,74,0,0,0,95.62,602.18Z"/><path class="cls-3" d="M494.5,496.69q0-16.9-9.6-26.58t-29.45-9.68H415.91V526.9h62.65a30.5,30.5,0,0,0,5.77-4.21Q494.5,513.25,494.5,496.69Z"/><path class="cls-1" d="M95.78,477.25Q109.24,458,134,458q24.93,0,38.39,19.52,12,17.47,13.27,49.41h49.88q-1.29-30.28-12.54-54.08Q210.29,446,187.08,431.64T134,417.28q-29.86,0-53.08,14.36T45,472.82Q33.75,496.55,32.47,526.9H82.35Q83.64,494.74,95.78,477.25Z"/><path class="cls-2" d="M172.4,602.92q-13.29,19.44-38.07,19.44-25.26,0-38.71-20.18a74,74,0,0,1-10-23.94H35.43a125.48,125.48,0,0,0,9.82,29.44Q58,634.17,81.34,648.45t53,14.27q30,0,53.24-14.44t35.69-41a126.57,126.57,0,0,0,9.4-29h-50.1C180.32,588,177,596.27,172.4,602.92Z"/><rect class="cls-2" x="366.7" y="578.24" width="49.22" height="81.2"/><polygon class="cls-2" points="499.92 659.44 552.74 659.44 552.74 657.14 510.97 578.24 458.32 578.24 499.92 659.44"/><path class="cls-1" d="M415.91,460.43h39.54q19.86,0,29.45,9.68t9.6,26.58q0,16.57-10.17,26a30.5,30.5,0,0,1-5.77,4.21h58.22c4.6-9.63,6.94-21,6.94-34.15q0-34.46-23-53.32t-65.3-18.87H366.7V526.9h49.21Z"/></svg>